<?xml version="1.0" encoding="UTF-8"?>
<!DOCTYPE svg PUBLIC "-//W3C//DTD SVG 1.1//EN" "http://www.w3.org/Graphics/SVG/1.1/DTD/svg11.dtd">
<!-- Creator: CorelDRAW X7 -->
<svg xmlns="http://www.w3.org/2000/svg" xml:space="preserve" width="8.5in" height="11in" version="1.1" style="shape-rendering:geometricPrecision; text-rendering:geometricPrecision; image-rendering:optimizeQuality; fill-rule:evenodd; clip-rule:evenodd"
viewBox="0 0 8500 11000"
 xmlns:xlink="http://www.w3.org/1999/xlink">
 <defs>
  <style type="text/css">
   <![CDATA[
    .str0 {stroke:#373435;stroke-width:6.94488}
    .fil1 {fill:#3E4095}
    .fil0 {fill:black}
   ]]>
  </style>
 </defs>
 <g id="Layer_x0020_1">
  <metadata id="CorelCorpID_0Corel-Layer"/>
  <path class="fil0" d="M4762 1568c-2348,0 -4250,1902 -4250,4250 0,2348 1902,4250 4250,4250 2348,0 4250,-1902 4250,-4250 0,-2348 -1902,-4250 -4250,-4250zm2087 2912l-697 3287c-52,233 -191,289 -384,180l-1063 -784 -512 494c-57,57 -105,105 -214,105l75 -1082 1969 -1779c86,-75 -19,-118 -132,-43l-2433 1533 -1049 -328c-228,-72 -233,-228 48,-337l4097 -1580c191,-69 357,46 295,334l0 0z"/>
  <path class="fil1 str0" d="M6849 4480l-697 3287c-52,233 -191,289 -384,180l-1063 -784 -512 494c-57,57 -105,105 -214,105l75 -1082 1969 -1779c86,-75 -19,-118 -132,-43l-2433 1533 -1049 -328c-228,-72 -233,-228 48,-337l4097 -1580c191,-69 357,46 295,334zm-2087 -2912c-2348,0 -4250,1902 -4250,4250 0,2348 1902,4250 4250,4250 2348,0 4250,-1902 4250,-4250 0,-2348 -1902,-4250 -4250,-4250z"/>
 </g>
</svg>
